HIERARCHY
ROOT Hips
{
	OFFSET 0.000000 0.000000 0.000000
	CHANNELS 6 Xposition Yposition Zposition Zrotation Yrotation Xrotation 
	JOINT LHipJoint
	{
		OFFSET 0.000000 0.000000 0.000000
		CHANNELS 3 Zrotation Yrotation Xrotation
		JOINT LeftUpLeg
		{
			OFFSET 1.363060 -1.794630 0.839290
			CHANNELS 3 Zrotation Yrotation Xrotation
			JOINT LeftLeg
			{
				OFFSET 2.448110 -6.726130 0.000000
				CHANNELS 3 Zrotation Yrotation Xrotation
				JOINT LeftFoot
				{
					OFFSET 2.562200 -7.039590 0.000000
					CHANNELS 3 Zrotation Yrotation Xrotation
					JOINT LeftToeBase
					{
						OFFSET 0.157640 -0.433110 2.322550
						CHANNELS 3 Zrotation Yrotation Xrotation
						End Site
						{
							OFFSET 0.000000 0.000000 0.000000
						}
					}
				}
			}
		}
	}
	JOINT RHipJoint
	{
		OFFSET 0.000000 0.000000 0.000000
		CHANNELS 3 Zrotation Yrotation Xrotation
		JOINT RightUpLeg
		{
			OFFSET -1.305520 -1.794630 0.839290
			CHANNELS 3 Zrotation Yrotation Xrotation
			JOINT RightLeg
			{
				OFFSET -2.542530 -6.985550 0.000000
				CHANNELS 3 Zrotation Yrotation Xrotation
				JOINT RightFoot
				{
					OFFSET -2.568260 -7.056230 0.000000
					CHANNELS 3 Zrotation Yrotation Xrotation
					JOINT RightToeBase
					{
						OFFSET -0.164730 -0.452590 2.363150
						CHANNELS 3 Zrotation Yrotation Xrotation
						End Site
						{
							OFFSET 0.000000 0.000000 0.000000
						}
					}
				}
			}
		}
	}
}
MOTION
Frames: 16
Frame Time: 0.008333
-12.061562 15.895907 -2.676560 -47.740663 83.518713 -17.686689 -8.400661 -1.935657 -0.926749 -10.766587 1.183887 -69.694672 -1.334780 3.738936 50.344187 2.290847 8.793715 -11.770640 -0.209401 -0.000000 -15.228900 11.462957 -0.334099 -5.320346 8.921912 -10.640309 -34.489977 -0.201595 -4.739355 63.888505 0.357286 7.591239 4.672274 1.527000 0.000000 -85.783800
-11.919228 15.877968 -2.696237 -47.594997 83.624619 -17.814408 -8.422759 -1.941273 -1.079041 -10.925930 1.234465 -69.197346 -1.295894 3.801710 51.500394 2.376531 9.042642 -13.074190 -0.471700 0.000000 -15.800900 11.523480 -0.294253 -5.309178 8.422520 -10.594243 -34.353355 -0.384110 -4.773200 64.798030 0.298542 7.769836 6.401668 1.822700 0.000000 -85.024600
-11.778669 15.862762 -2.715467 -47.570277 83.732507 -18.050771 -8.449148 -1.947332 -1.225095 -11.065899 1.283670 -68.628811 -1.266634 3.847083 52.494549 2.459331 9.282849 -14.324183 -0.735500 -0.000000 -16.453800 11.574064 -0.256918 -5.295686 7.986800 -10.506121 -34.249993 -0.558642 -4.804723 65.706659 0.220370 7.809792 8.088328 2.094000 -0.000000 -83.727300
-11.639697 15.850334 -2.734069 -47.632522 83.836545 -18.356884 -8.480480 -1.952602 -1.360350 -11.181576 1.330265 -68.010536 -1.243787 3.877593 53.339821 2.535911 9.507931 -15.474006 -0.989600 0.000000 -17.095700 11.614534 -0.221262 -5.278855 7.620133 -10.382466 -34.195983 -0.724283 -4.834574 66.621313 0.123970 7.673896 9.680887 2.309700 -0.000000 -81.894100
-11.502315 15.840618 -2.751947 -47.780147 83.932396 -18.727084 -8.516734 -1.956944 -1.482101 -11.268763 1.374244 -67.364924 -1.224340 3.896068 54.056148 2.603504 9.711813 -16.494076 -1.224800 -0.000000 -17.656000 11.644987 -0.187086 -5.259054 7.329159 -10.230615 -34.202692 -0.880192 -4.863893 67.545731 0.010794 7.315777 11.108192 2.431100 -0.000000 -79.613200
-11.366521 15.833583 -2.768917 -47.996723 84.018360 -19.141154 -8.557465 -1.959496 -1.588086 -11.328498 1.415378 -66.713904 -1.206328 3.905392 54.664045 2.660622 9.890826 -17.371670 -1.435100 0.000000 -18.090501 11.665760 -0.153342 -5.236418 7.116123 -10.059043 -34.283160 -1.026969 -4.893775 68.483807 -0.118155 6.693744 12.310247 2.422700 -0.000000 -76.985300
-11.232449 15.829211 -2.784820 -48.283792 84.093980 -19.598344 -8.601760 -1.960173 -1.678226 -11.363218 1.455665 -66.074958 -1.188735 3.908170 55.183353 2.706961 10.043233 -18.110593 -1.618200 -0.000000 -18.387401 11.677339 -0.119348 -5.211700 6.982508 -9.873871 -34.444618 -1.165410 -4.925325 69.435188 -0.262111 5.775761 13.226321 2.256800 0.000000 -74.143900
-11.100164 15.827438 -2.799478 -48.642175 84.160855 -20.097158 -8.648529 -1.958583 -1.752872 -11.378187 1.497295 -65.462002 -1.171612 3.906553 55.630379 2.743308 10.168897 -18.726853 -1.774900 -0.000000 -18.564799 11.680290 -0.084085 -5.185250 6.926624 -9.681164 -34.694434 -1.296661 -4.959434 70.397940 -0.421118 4.549646 13.814975 1.923200 -0.000000 -71.197900
-10.969802 15.828218 -2.812709 -49.075124 84.221771 -20.640183 -8.696559 -1.954291 -1.812910 -11.380124 1.542727 -64.884267 -1.155835 3.902122 56.017406 2.771348 10.269194 -19.245532 -1.908901 0.000000 -18.655600 11.675183 -0.046736 -5.157214 6.945152 -9.486306 -35.036749 -1.421505 -4.996702 71.367217 -0.595725 3.025891 14.049960 1.432000 -0.000000 -68.229600
-10.841488 15.831501 -2.824493 -49.611314 84.279135 -21.256956 -8.744682 -1.948153 -1.861671 -11.373699 1.597005 -64.342971 -1.142758 3.895772 56.352036 2.792930 10.345865 -19.695200 -2.025500 -0.000001 -18.710400 11.662536 -0.007386 -5.128181 7.034570 -9.289358 -35.468278 -1.539578 -5.037695 72.332418 -0.785342 1.246357 13.912460 0.816000 -0.000000 -65.287600
-10.715319 15.837203 -2.834824 -50.278887 84.335735 -21.977070 -8.791887 -1.940858 -1.902111 -11.363331 1.664013 -63.835847 -1.134020 3.887774 56.636816 2.810005 10.400947 -20.103650 -2.130400 -0.000000 -18.776900 11.642848 0.033621 -5.098304 7.189608 -9.090252 -35.984731 -1.649915 -5.082738 73.281147 -0.988480 -0.720506 13.405802 0.128000 0.000000 -62.375600
-10.591390 15.845192 -2.843760 -51.102111 84.393758 -22.827981 -8.837569 -1.933176 -1.937318 -11.352213 1.746656 -63.355557 -1.131081 3.877854 56.870910 2.824280 10.436870 -20.493846 -2.228500 0.000000 -18.896099 11.616550 0.075508 -5.067637 7.403163 -8.888174 -36.579047 -1.750955 -5.131978 74.199137 -1.201804 -2.785296 12.550425 -0.567600 -0.000000 -59.468900
-10.469778 15.855325 -2.851426 -52.110838 84.454551 -23.843225 -8.881482 -1.926363 -1.970673 -11.341016 1.847638 -62.891850 -1.134998 3.865383 57.050807 2.836871 10.455709 -20.880531 -2.323199 0.000000 -19.102400 11.584004 0.116823 -5.036241 7.668184 -8.680616 -37.241189 -1.840722 -5.185326 75.070264 -1.419410 -4.843902 11.385845 -1.204100 0.000000 -56.544400
-10.350405 15.867497 -2.858062 -53.335142 84.517421 -25.055350 -8.923821 -1.922113 -2.004941 -11.327696 1.967510 -62.434786 -1.146191 3.849456 57.171849 2.848231 10.458526 -21.270190 -2.415900 -0.000000 -19.413399 11.545254 0.155886 -5.003804 7.977716 -8.463458 -37.961935 -1.917231 -5.242373 75.878174 -1.633115 -6.790099 9.973771 -1.724200 -0.000000 -53.593700
-10.233224 15.881497 -2.863823 -54.785635 84.581654 -26.479091 -8.965298 -1.921788 -2.042261 -11.309449 2.105563 -61.973339 -1.164448 3.829209 57.229965 2.858254 10.446492 -21.660676 -2.506200 -0.000000 -19.830199 11.500156 0.191133 -4.970101 8.323469 -8.234305 -38.731141 -1.978852 -5.302384 76.607972 -1.833299 -8.530107 8.387940 -2.091100 0.000000 -50.644200
-10.118131 15.897160 -2.868924 -56.461953 84.645726 -28.117549 -9.006988 -1.926715 -2.083992 -11.282435 2.259245 -61.498411 -1.188939 3.803913 57.222710 2.866350 10.420255 -22.043751 -2.592300 -0.000001 -20.337000 11.448201 0.221271 -4.934913 8.698010 -7.991158 -39.540152 -2.024431 -5.364356 77.246760 -2.009921 -9.989869 6.711158 -2.292200 0.000000 -47.762100
